<?xml version="1.0" encoding="utf-8"?>
<!-- Generator: Adobe Illustrator 23.1.0, SVG Export Plug-In . SVG Version: 6.00 Build 0)  -->
<svg version="1.1" xmlns="http://www.w3.org/2000/svg" xmlns:xlink="http://www.w3.org/1999/xlink" x="0px" y="0px"
	 viewBox="0 0 750 500" style="enable-background:new 0 0 750 500;" xml:space="preserve">
<style type="text/css">
	.st0{fill:#F5F5F5;}
	.st1{fill:#E0E0E0;}
	.st2{fill:#FAFAFA;}
	.st3{display:none;}
	.st4{display:inline;fill:#F5F5F5;}
	.st5{fill:#263238;}
	.st6{fill:#FFFFFF;}
	.st7{fill:#455A64;}
	.st8{fill:#E8505B;}
	.st9{opacity:0.3;fill:#FFFFFF;}
	.st10{opacity:0.3;}
	.st11{fill:#B77153;}
	.st12{fill:#995037;}
	.st13{fill:none;stroke:#4E585D;stroke-miterlimit:10;}
	.st14{opacity:0.2;}
</style>
<g id="Background_Complete">
	<g>
		<path class="st0" d="M474.95,200.84v44.1c0,7.67,6.47,14.14,14.45,14.14h158.12c7.98,0,14.45-6.47,14.45-14.45v-37.26l19.69-20.68
			l-192.21-0.6C481.45,186.06,474.95,192.53,474.95,200.84z"/>
		<g>
			<polygon class="st1" points="638.66,212.8 495.17,212.13 495.19,207.72 638.67,208.39 			"/>
		</g>
		<g>
			<polygon class="st1" points="638.66,227.31 495.17,226.64 495.19,222.23 638.67,222.9 			"/>
		</g>
		<g>
			
				<rect x="608.07" y="210.72" transform="matrix(4.919567e-03 -1 1 4.919567e-03 368.1771 848.1992)" class="st1" width="4.41" height="56.77"/>
		</g>
	</g>
	<g>
		<g>
			<g>
				<g>
					<path class="st0" d="M205.47,425.61c22.11-15.45,27.13-44.12,26.25-69.89c-0.15-4.3,0.33-8.84-1.72-12.61
						c-2.05-3.77-6.82-6.35-10.67-4.54c-3.2,1.5-4.59,5.22-6.37,8.29c-2.38,4.09-5.92,7.47-10.09,9.64
						c-2.74,1.42-6.13,2.29-8.83,0.8c-3.71-2.05-4.15-7.17-4.12-11.45c0.05-7.98,0.1-15.95,0.15-23.92
						c0.03-4.28,0.04-8.65-1.29-12.71c-1.33-4.06-4.27-7.83-8.34-8.97c-4.07-1.14-9.1,1.21-9.96,5.4c-0.36,1.74,0,3.55-0.12,5.33
						c-0.12,1.78-0.95,3.74-2.63,4.24c-1.71,0.5-3.42-0.71-4.7-1.96c-4.42-4.32-7.41-9.89-10.21-15.42s-5.52-11.2-9.53-15.91
						c-4.01-4.71-9.55-8.45-15.68-8.79c-6.13-0.35-12.66,3.44-14.21,9.45c-1.55,6.03,1.97,12.15,5.8,17.04
						c5.68,7.25,12.4,13.65,19.89,18.96c1.35,0.96,2.81,1.99,3.33,3.58c0.93,2.85-1.77,5.69-4.59,6.62
						c-3.19,1.06-6.65,0.73-9.99,1.12c-3.34,0.39-6.95,1.86-8.21,5.02c-1.75,4.37,1.91,8.96,5.5,11.96
						c7.21,6.01,15.44,10.76,24.22,13.98c3.15,1.15,6.46,2.16,9,4.37c2.54,2.21,4.07,6.06,2.54,9.07c-1.53,3.02-5.47,3.98-8.77,3.37
						c-3.3-0.61-6.25-2.4-9.39-3.59c-5.88-2.22-13.47-1.81-17.24,3.27c-2.48,3.34-2.69,7.99-1.44,11.97
						c1.25,3.98,3.79,7.41,6.49,10.58c9.42,11.06,21.49,19.96,35.13,24.69C179.27,429.28,191.91,430.56,205.47,425.61"/>
				</g>
			</g>
		</g>
		<g>
			<g>
				<g>
					<g>
						<path class="st1" d="M205.8,444.71c-0.93-10.21-3.17-22.27-6.99-35.27c-3.79-13.01-9.13-26.92-15.22-41.28
							c-1.53-3.58-3.05-7.13-4.55-10.62c-1.5-3.48-2.99-6.93-4.65-10.22c-3.3-6.59-6.97-12.67-10.64-18.34
							c-3.67-5.67-7.35-10.91-10.83-15.79c-3.49-4.87-6.84-9.36-10.06-13.31c-6.42-7.94-12.34-13.71-16.57-17.51
							c-2.11-1.91-3.8-3.33-4.95-4.28c-0.56-0.45-0.99-0.81-1.32-1.07c-0.3-0.24-0.46-0.35-0.47-0.34
							c-0.01,0.01,0.13,0.15,0.42,0.41c0.32,0.28,0.74,0.66,1.27,1.13c1.12,0.99,2.77,2.45,4.85,4.39c4.16,3.87,10,9.68,16.34,17.64
							c3.18,3.97,6.49,8.46,9.96,13.34c3.46,4.89,7.12,10.14,10.76,15.81c3.64,5.66,7.29,11.73,10.56,18.29
							c1.65,3.27,3.12,6.69,4.62,10.18c1.49,3.49,3.01,7.03,4.54,10.61c6.08,14.35,11.43,28.22,15.25,41.18
							c3.84,12.95,6.13,24.94,7.13,35.11"/>
					</g>
				</g>
			</g>
		</g>
		<g>
			<g>
				<g>
					<g>
						<path class="st1" d="M174.17,347.3c0.05,0.01,0.2-0.64,0.42-1.83c0.22-1.18,0.49-2.9,0.79-5.03
							c0.6-4.26,1.24-10.17,1.91-16.69c0.67-6.52,1.39-12.41,2.06-16.65c0.33-2.12,0.61-3.83,0.82-5.02
							c0.2-1.18,0.29-1.85,0.24-1.86c-0.05-0.01-0.24,0.63-0.54,1.79c-0.3,1.16-0.67,2.87-1.07,4.98
							c-0.81,4.23-1.62,10.13-2.3,16.66c-0.65,6.44-1.24,12.26-1.69,16.71c-0.22,2.01-0.4,3.7-0.55,5.06
							C174.16,346.63,174.12,347.29,174.17,347.3z"/>
					</g>
				</g>
			</g>
		</g>
		<g>
			<g>
				<g>
					<g>
						<path class="st1" d="M119.16,337.02c0,0.05,0.78,0.15,2.19,0.26c1.41,0.13,3.46,0.3,5.97,0.59
							c5.04,0.54,11.97,1.54,19.57,2.97c7.6,1.45,14.43,3.05,19.33,4.35c2.46,0.63,4.43,1.2,5.8,1.58c1.37,0.39,2.13,0.58,2.15,0.53
							c0.02-0.05-0.72-0.34-2.06-0.82c-1.34-0.47-3.3-1.12-5.74-1.83c-4.88-1.44-11.71-3.14-19.33-4.59
							c-7.62-1.44-14.6-2.35-19.67-2.75c-2.53-0.22-4.59-0.31-6.01-0.34C119.95,336.95,119.16,336.97,119.16,337.02z"/>
					</g>
				</g>
			</g>
		</g>
		<g>
			<g>
				<g>
					<g>
						<path class="st1" d="M198.14,408.44c0.03,0.01,0.15-0.22,0.38-0.67c0.25-0.54,0.56-1.2,0.94-1.99
							c0.81-1.73,1.91-4.27,3.24-7.42c2.65-6.3,6.05-15.12,9.66-24.91c3.61-9.79,6.92-18.63,9.44-24.98
							c1.23-3.09,2.25-5.62,3.01-7.51c0.32-0.82,0.59-1.49,0.81-2.05c0.18-0.47,0.26-0.72,0.23-0.74c-0.03-0.01-0.15,0.22-0.38,0.67
							c-0.25,0.54-0.56,1.19-0.94,1.99c-0.81,1.73-1.91,4.27-3.24,7.42c-2.65,6.3-6.05,15.12-9.66,24.91
							c-3.61,9.79-6.92,18.62-9.44,24.97c-1.24,3.08-2.25,5.62-3.01,7.51c-0.32,0.82-0.59,1.5-0.81,2.05
							C198.19,408.17,198.11,408.43,198.14,408.44z"/>
					</g>
				</g>
			</g>
		</g>
		<g>
			<g>
				<g>
					<g>
						<path class="st1" d="M125.03,384.88c-0.01,0.03,0.24,0.13,0.73,0.3c0.57,0.19,1.27,0.43,2.12,0.71
							c1.96,0.64,4.61,1.49,7.83,2.54c6.61,2.14,15.7,5.21,25.75,8.61c10.05,3.4,19.18,6.39,25.84,8.39c3.33,1,6.03,1.79,7.91,2.3
							c0.87,0.23,1.58,0.42,2.17,0.57c0.5,0.12,0.76,0.17,0.77,0.15c0.01-0.03-0.24-0.13-0.73-0.3c-0.57-0.19-1.27-0.42-2.12-0.71
							c-1.96-0.64-4.61-1.49-7.83-2.54c-6.61-2.14-15.71-5.21-25.75-8.61c-10.05-3.4-19.18-6.39-25.83-8.39
							c-3.33-1.01-6.03-1.79-7.91-2.3c-0.87-0.23-1.58-0.42-2.17-0.57C125.3,384.9,125.04,384.85,125.03,384.88z"/>
					</g>
				</g>
			</g>
		</g>
	</g>
	<g>
		<path class="st1" d="M256.48,155.21v34.17c0,6.18-5.01,11.19-11.19,11.19H122.77c-6.18,0-11.19-5.01-11.19-11.19v-28.87
			l-15.25-16.03l148.93-0.47C251.45,144,256.48,149.02,256.48,155.21z"/>
		<g>
			<polygon class="st2" points="129.64,164.72 240.82,164.21 240.8,160.79 129.63,161.3 			"/>
		</g>
		<g>
			<polygon class="st2" points="129.64,175.96 240.82,175.45 240.8,172.03 129.63,172.55 			"/>
		</g>
		<g>
			
				<rect x="129.63" y="183.4" transform="matrix(1 -4.921614e-03 4.921614e-03 1 -0.9092 0.7485)" class="st2" width="43.99" height="3.42"/>
		</g>
	</g>
</g>
<g id="Background_Simple" class="st3">
	<path class="st4" d="M610.08,121.78c23.99,68.56,3.26,148.5-44.84,202.93c-48.1,54.43-120.28,84.36-192.74,89.29
		c-51.73,3.52-120.41-5.67-163.54-34.45c-43.13-28.78-73.11-71.06-62.71-125.58c3.67-19.24,16.09-44.96,30.91-57.77
		c23.66-20.45,59.04-16.7,89.91-11.74c30.87,4.96,66.22,8.8,89.97-11.55c18.24-15.63,23.91-41,35.21-62.21
		c19.2-36.06,57.52-61.2,98.24-64.46c5.66-0.45,11.33-0.48,16.98-0.1c43.95,2.92,82.4,30.7,100.46,70.87L610.08,121.78z"/>
</g>
<g id="Floor">
	<g>
		<path class="st5" d="M669.18,464.82c0,0.14-129.01,0.26-288.13,0.26c-159.17,0-288.15-0.12-288.15-0.26
			c0-0.14,128.99-0.26,288.15-0.26C540.17,464.56,669.18,464.68,669.18,464.82z"/>
	</g>
</g>
<g id="Device">
	<g>
		<g>
			<g>
				<g>
					<path class="st5" d="M566.85,218.27v235.01c0,6.38-5.17,11.55-11.55,11.55H208c-6.38,0-11.55-5.17-11.55-11.55V218.27
						c0-6.38,5.17-11.55,11.55-11.55h347.3C561.68,206.72,566.85,211.89,566.85,218.27z"/>
				</g>
				<g>
					
						<rect x="255.54" y="181.11" transform="matrix(6.123234e-17 -1 1 6.123234e-17 40.6841 712.2255)" class="st6" width="241.83" height="309.33"/>
				</g>
				<g>
					
						<ellipse transform="matrix(0.2288 -0.9735 0.9735 0.2288 95.9447 792.6478)" class="st7" cx="548.24" cy="335.77" rx="9.9" ry="9.9"/>
				</g>
				<g>
					<path class="st7" d="M211.21,298.12v75.31c0,0.67-0.54,1.22-1.22,1.22h-1.66c-0.67,0-1.22-0.54-1.22-1.22v-75.31
						c0-0.67,0.54-1.22,1.22-1.22h1.66C210.66,296.9,211.21,297.45,211.21,298.12z"/>
				</g>
			</g>
		</g>
		<g>
			
				<ellipse transform="matrix(0.5498 -0.8353 0.8353 0.5498 -156.5848 395.5476)" class="st8" cx="288.66" cy="343.04" rx="24.99" ry="24.99"/>
			
				<ellipse transform="matrix(0.5498 -0.8353 0.8353 0.5498 -156.5848 395.5476)" class="st9" cx="288.66" cy="343.04" rx="24.99" ry="24.99"/>
			<g>
				<path class="st5" d="M280.04,336.74c0.95-0.08,1.81,0.97,1.92,2.33c0.11,1.37-0.56,2.54-1.51,2.62
					c-0.95,0.08-1.81-0.97-1.92-2.33C278.41,337.99,279.09,336.82,280.04,336.74z"/>
			</g>
			<g>
				<path class="st5" d="M295.92,336.41c-0.95-0.04-1.76,1.04-1.82,2.41c-0.06,1.37,0.67,2.51,1.62,2.55
					c0.95,0.04,1.76-1.04,1.82-2.41C297.6,337.6,296.87,336.45,295.92,336.41z"/>
			</g>
			<g>
				<path class="st5" d="M298.65,347.99c0,0.29-4.66,0.53-10.4,0.53c-5.75,0-10.4-0.24-10.4-0.53c0-0.29,4.66-0.53,10.4-0.53
					C293.99,347.45,298.65,347.69,298.65,347.99z"/>
			</g>
			<g>
				<path class="st5" d="M281.95,333.87c-0.06,0.3-1.25,0.29-2.64,0.51c-1.39,0.21-2.52,0.58-2.67,0.32
					c-0.15-0.24,0.89-1.12,2.5-1.37C280.75,333.07,282.02,333.59,281.95,333.87z"/>
			</g>
			<g>
				<path class="st5" d="M300.43,335.08c-0.19,0.24-1.27-0.33-2.66-0.74c-1.38-0.44-2.59-0.57-2.61-0.88
					c-0.04-0.28,1.32-0.64,2.93-0.14C299.7,333.81,300.62,334.87,300.43,335.08z"/>
			</g>
		</g>
		<g>
			
				<ellipse transform="matrix(0.1573 -0.9876 0.9876 0.1573 58.9982 751.0677)" class="st8" cx="469.57" cy="340.97" rx="25.9" ry="25.9"/>
			
				<ellipse transform="matrix(0.1573 -0.9876 0.9876 0.1573 58.9982 751.0677)" class="st10" cx="469.57" cy="340.97" rx="25.9" ry="25.9"/>
			<g>
				<path class="st5" d="M460.63,334.44c0.98-0.08,1.87,1,1.99,2.42c0.12,1.42-0.58,2.63-1.57,2.71c-0.98,0.08-1.87-1-1.99-2.42
					C458.95,335.73,459.65,334.52,460.63,334.44z"/>
			</g>
			<g>
				<path class="st5" d="M477.1,334.1c-0.98-0.04-1.83,1.08-1.89,2.5c-0.06,1.42,0.69,2.6,1.68,2.65c0.98,0.04,1.83-1.08,1.89-2.5
					C478.84,335.32,478.09,334.14,477.1,334.1z"/>
			</g>
			<g>
				<path class="st5" d="M479.93,346.1c-0.11,0.14-1.18-0.62-3.03-1.57c-1.85-0.93-4.58-1.96-7.71-1.91
					c-3.13,0.06-5.85,1.13-7.73,2.01c-1.88,0.91-2.99,1.61-3.09,1.47c-0.07-0.1,0.89-1.02,2.74-2.14c1.84-1.08,4.68-2.34,8.07-2.41
					c3.39-0.06,6.28,1.18,8.1,2.31C479.09,345.02,480,346.01,479.93,346.1z"/>
			</g>
			<g>
				<path class="st5" d="M462.61,331.46c0.09,0.11-0.08,0.43-0.51,0.81c-0.43,0.37-1.14,0.79-2.03,0.95
					c-0.89,0.16-1.73-0.01-2.25-0.25c-0.53-0.25-0.77-0.53-0.71-0.65c0.14-0.28,1.35,0.12,2.77-0.15
					C461.31,331.92,462.42,331.22,462.61,331.46z"/>
			</g>
			<g>
				<path class="st5" d="M481.78,332.72c0.04,0.13-0.24,0.38-0.81,0.57c-0.56,0.17-1.45,0.23-2.33-0.08
					c-0.88-0.3-1.53-0.84-1.9-1.27c-0.38-0.44-0.52-0.78-0.42-0.88c0.23-0.23,1.27,0.66,2.67,1.15
					C480.38,332.7,481.68,332.42,481.78,332.72z"/>
			</g>
		</g>
		<g>
			<g>
				<polygon class="st1" points="419.93,412.86 425.93,409.89 431.79,413.15 430.81,406.52 435.72,401.96 429.11,400.84 
					426.29,394.76 423.19,400.7 416.54,401.5 421.22,406.29 				"/>
			</g>
			<g>
				<polygon class="st8" points="395.45,412.86 401.45,409.89 407.3,413.15 406.33,406.52 411.24,401.96 404.63,400.84 
					401.81,394.76 398.71,400.7 392.06,401.5 396.74,406.29 				"/>
			</g>
			<g>
				<polygon class="st8" points="370.97,412.86 376.97,409.89 382.82,413.15 381.85,406.52 386.76,401.96 380.15,400.84 
					377.33,394.76 374.23,400.7 367.58,401.5 372.26,406.29 				"/>
			</g>
			<g>
				<polygon class="st8" points="346.49,412.86 352.49,409.89 358.34,413.15 357.37,406.52 362.28,401.96 355.67,400.84 
					352.85,394.76 349.75,400.7 343.1,401.5 347.78,406.29 				"/>
			</g>
			<g>
				<polygon class="st8" points="322.01,412.86 328.01,409.89 333.86,413.15 332.89,406.52 337.8,401.96 331.19,400.84 
					328.37,394.76 325.27,400.7 318.62,401.5 323.3,406.29 				"/>
			</g>
		</g>
		<g>
			<path class="st5" d="M435.99,265.51c0,0.15-26.86,0.27-59.98,0.27c-33.13,0-59.98-0.12-59.98-0.27c0-0.15,26.85-0.27,59.98-0.27
				C409.13,265.25,435.99,265.37,435.99,265.51z"/>
		</g>
		<g>
			<path class="st5" d="M406.5,258.31c0,0.15-13.27,0.27-29.62,0.27c-16.37,0-29.63-0.12-29.63-0.27c0-0.15,13.26-0.27,29.63-0.27
				C393.24,258.04,406.5,258.16,406.5,258.31z"/>
		</g>
		<g>
			<g>
				<g>
					
						<ellipse transform="matrix(0.3066 -0.9518 0.9518 0.3066 -54.5941 595.0548)" class="st8" cx="381.13" cy="335" rx="34.12" ry="34.12"/>
					<g>
						<path class="st5" d="M369.36,326.4c1.29-0.11,2.47,1.32,2.62,3.19c0.15,1.87-0.77,3.47-2.06,3.57
							c-1.29,0.11-2.47-1.32-2.62-3.19C367.14,328.11,368.07,326.51,369.36,326.4z"/>
					</g>
					<g>
						<path class="st5" d="M391.05,325.96c-1.3-0.05-2.41,1.42-2.49,3.29c-0.08,1.87,0.91,3.43,2.21,3.48
							c1.3,0.05,2.41-1.42,2.49-3.29C393.34,327.57,392.35,326.01,391.05,325.96z"/>
					</g>
					<g>
						<path class="st5" d="M394.77,337.15c0.05,0.05-0.22,0.4-0.77,1c-0.53,0.62-1.41,1.4-2.56,2.3c-1.19,0.83-2.66,1.83-4.51,2.47
							c-1.83,0.68-3.99,1.09-6.26,0.98c-2.27-0.08-4.36-0.7-6.15-1.42c-1.81-0.7-3.3-1.61-4.53-2.37c-2.42-1.62-3.7-2.87-3.63-2.96
							c0.11-0.14,1.55,0.9,4.02,2.32c1.25,0.67,2.74,1.48,4.49,2.1c1.74,0.64,3.73,1.19,5.85,1.27c2.12,0.1,4.13-0.25,5.88-0.84
							c1.77-0.55,3.2-1.44,4.41-2.17c1.16-0.8,2.1-1.47,2.71-1.99C394.35,337.35,394.72,337.1,394.77,337.15z"/>
					</g>
					<g>
						<path class="st5" d="M370.9,318.73c-0.06,0.3-1.69,0.19-3.63,0.51c-1.94,0.29-3.46,0.89-3.61,0.62
							c-0.15-0.24,1.29-1.35,3.45-1.68C369.26,317.84,370.97,318.45,370.9,318.73z"/>
					</g>
					<g>
						<path class="st5" d="M398.37,320.32c-0.19,0.24-1.63-0.62-3.57-1.2c-1.93-0.61-3.61-0.7-3.63-1.01
							c-0.04-0.28,1.79-0.68,3.94-0.01C397.27,318.75,398.56,320.11,398.37,320.32z"/>
					</g>
				</g>
				<g>
					<path class="st5" d="M366.92,334.7c0.13-0.02,0.35,0.33,0.38,0.97c0.04,0.64-0.17,1.55-0.74,2.36
						c-0.57,0.81-1.37,1.3-1.98,1.48c-0.62,0.18-1.02,0.09-1.05-0.04c-0.05-0.3,1.26-0.73,2.16-2.05
						C366.64,336.13,366.62,334.75,366.92,334.7z"/>
				</g>
				<g>
					<path class="st5" d="M397.66,337.84c0.03,0.13-0.25,0.34-0.79,0.39c-0.53,0.05-1.29-0.12-1.94-0.61
						c-0.66-0.49-1.04-1.17-1.14-1.68c-0.11-0.52,0.01-0.85,0.14-0.87c0.3-0.02,0.64,0.99,1.64,1.69
						C396.53,337.51,397.59,337.54,397.66,337.84z"/>
				</g>
			</g>
			<g>
				<path class="st8" d="M422.85,334.7c0,0-0.03-0.23-0.06-0.69c-0.03-0.47-0.07-1.14-0.13-2.01c-0.03-0.44-0.06-0.94-0.09-1.48
					c-0.06-0.54-0.17-1.13-0.27-1.77c-0.1-0.64-0.21-1.33-0.33-2.06c-0.09-0.74-0.36-1.49-0.55-2.31
					c-0.75-3.27-2.28-7.14-4.69-11.25c-2.44-4.08-5.95-8.35-10.74-11.97c-0.6-0.45-1.21-0.9-1.82-1.36
					c-0.64-0.42-1.32-0.8-1.98-1.22c-0.68-0.39-1.33-0.86-2.06-1.19c-0.72-0.35-1.45-0.7-2.19-1.05c-0.37-0.18-0.74-0.35-1.11-0.53
					c-0.39-0.14-0.78-0.28-1.17-0.43c-0.78-0.29-1.57-0.57-2.37-0.86c-0.81-0.27-1.65-0.44-2.48-0.67
					c-0.84-0.19-1.67-0.49-2.55-0.58c-1.74-0.25-3.51-0.61-5.33-0.62c-0.91-0.03-1.83-0.12-2.75-0.11c-0.92,0.05-1.85,0.1-2.79,0.14
					c-0.47,0.03-0.94,0.03-1.41,0.09l-1.41,0.22c-0.94,0.16-1.89,0.27-2.84,0.46c-1.86,0.51-3.79,0.88-5.62,1.65
					c-1.89,0.61-3.67,1.54-5.5,2.42c-0.89,0.48-1.74,1.04-2.62,1.57c-0.43,0.28-0.89,0.51-1.3,0.82l-1.24,0.93
					c-1.71,1.18-3.21,2.65-4.78,4.06c-0.71,0.78-1.42,1.57-2.14,2.36l-0.54,0.59l-0.48,0.64l-0.96,1.29l-0.97,1.3l-0.85,1.39
					l-0.85,1.4l-0.42,0.7l-0.36,0.74c-0.47,0.99-0.95,1.98-1.43,2.97c-0.38,1.04-0.76,2.08-1.14,3.12
					c-1.37,4.23-2.11,8.72-2.17,13.29c0.06,4.57,0.8,9.07,2.17,13.3c0.38,1.04,0.76,2.08,1.14,3.12c0.48,0.99,0.96,1.99,1.43,2.97
					l0.36,0.74l0.43,0.7l0.85,1.4l0.85,1.39l0.97,1.3l0.96,1.29l0.48,0.64l0.54,0.59c0.72,0.79,1.43,1.58,2.14,2.36
					c1.57,1.42,3.07,2.89,4.78,4.06l1.24,0.93c0.41,0.31,0.87,0.55,1.3,0.82c0.88,0.52,1.73,1.08,2.62,1.57
					c1.83,0.88,3.61,1.81,5.5,2.42c1.83,0.77,3.76,1.14,5.62,1.65c0.94,0.2,1.9,0.31,2.84,0.46l1.41,0.22
					c0.47,0.06,0.94,0.06,1.41,0.09c0.94,0.05,1.87,0.1,2.79,0.14c0.92,0.01,1.84-0.07,2.75-0.11c1.83-0.01,3.59-0.37,5.33-0.62
					c0.88-0.09,1.71-0.39,2.55-0.58c0.83-0.23,1.68-0.4,2.48-0.67c0.8-0.29,1.59-0.58,2.37-0.86c0.39-0.14,0.78-0.28,1.17-0.43
					c0.37-0.18,0.74-0.35,1.11-0.53c0.74-0.35,1.47-0.7,2.19-1.05c0.73-0.33,1.38-0.8,2.06-1.19c0.67-0.41,1.34-0.8,1.98-1.22
					c0.62-0.46,1.22-0.91,1.82-1.36c4.79-3.62,8.3-7.89,10.74-11.97c2.42-4.1,3.95-7.97,4.69-11.25c0.19-0.82,0.47-1.57,0.55-2.31
					c0.12-0.74,0.23-1.42,0.33-2.06c0.1-0.64,0.21-1.23,0.27-1.77c0.03-0.54,0.06-1.04,0.09-1.48c0.06-0.87,0.1-1.54,0.13-2.01
					C422.82,334.93,422.85,334.7,422.85,334.7s0.01,0.23-0.01,0.69c-0.02,0.47-0.04,1.14-0.08,2.02c-0.02,0.45-0.04,0.94-0.06,1.49
					c-0.05,0.55-0.16,1.14-0.24,1.78c-0.09,0.64-0.2,1.34-0.3,2.08c-0.08,0.75-0.35,1.5-0.53,2.33c-0.72,3.3-2.23,7.2-4.64,11.35
					c-2.43,4.13-5.95,8.45-10.76,12.12c-0.6,0.45-1.22,0.91-1.84,1.38c-0.64,0.43-1.32,0.82-2,1.24c-0.69,0.39-1.34,0.87-2.07,1.21
					c-0.73,0.35-1.46,0.71-2.21,1.07c-0.37,0.18-0.75,0.36-1.12,0.54c-0.39,0.14-0.78,0.29-1.18,0.43c-0.79,0.29-1.59,0.58-2.4,0.88
					c-0.81,0.27-1.67,0.45-2.51,0.68c-0.85,0.2-1.69,0.5-2.58,0.59c-1.76,0.25-3.54,0.62-5.39,0.64c-0.92,0.03-1.84,0.13-2.78,0.11
					c-0.93-0.05-1.87-0.09-2.82-0.14c-0.47-0.03-0.95-0.03-1.42-0.09l-1.42-0.22c-0.95-0.16-1.91-0.26-2.87-0.46
					c-1.88-0.51-3.83-0.89-5.69-1.66c-1.91-0.61-3.72-1.55-5.57-2.44c-0.9-0.49-1.77-1.05-2.66-1.58c-0.44-0.28-0.9-0.52-1.32-0.83
					l-1.26-0.94c-1.73-1.19-3.25-2.67-4.84-4.11c-0.72-0.79-1.44-1.59-2.17-2.39l-0.55-0.6l-0.49-0.65l-0.98-1.31l-0.98-1.31
					l-0.86-1.4l-0.86-1.41l-0.43-0.71l-0.36-0.75c-0.48-1-0.96-2-1.45-3.01c-0.38-1.05-0.77-2.1-1.16-3.16
					c-1.39-4.28-2.14-8.83-2.2-13.46c0.06-4.63,0.81-9.18,2.2-13.46c0.39-1.06,0.77-2.11,1.16-3.16c0.49-1.01,0.97-2.01,1.45-3.01
					l0.37-0.75l0.43-0.71l0.86-1.41l0.86-1.4l0.98-1.31l0.98-1.31l0.49-0.65l0.55-0.6c0.73-0.8,1.45-1.59,2.17-2.39
					c1.59-1.43,3.11-2.92,4.84-4.11l1.26-0.94c0.42-0.31,0.88-0.55,1.32-0.83c0.89-0.53,1.76-1.1,2.66-1.58
					c1.85-0.89,3.65-1.83,5.56-2.44c1.86-0.77,3.81-1.15,5.69-1.66c0.95-0.2,1.92-0.31,2.87-0.46l1.42-0.22
					c0.47-0.06,0.95-0.06,1.42-0.09c0.95-0.05,1.89-0.09,2.82-0.14c0.93-0.01,1.86,0.08,2.78,0.11c1.85,0.02,3.63,0.38,5.39,0.64
					c0.89,0.09,1.73,0.39,2.58,0.59c0.84,0.23,1.69,0.41,2.51,0.68c0.81,0.3,1.6,0.59,2.4,0.88c0.4,0.15,0.79,0.29,1.18,0.43
					c0.38,0.18,0.75,0.36,1.12,0.54c0.74,0.36,1.48,0.72,2.21,1.07c0.74,0.34,1.39,0.81,2.07,1.21c0.67,0.42,1.35,0.81,2,1.24
					c0.62,0.46,1.23,0.92,1.84,1.38c4.81,3.67,8.34,7.99,10.76,12.12c2.41,4.15,3.92,8.05,4.64,11.35c0.18,0.82,0.45,1.58,0.53,2.33
					c0.11,0.74,0.21,1.43,0.3,2.08c0.09,0.64,0.2,1.23,0.24,1.78c0.02,0.55,0.04,1.04,0.06,1.49c0.03,0.87,0.06,1.55,0.08,2.02
					C422.86,334.47,422.85,334.7,422.85,334.7z"/>
			</g>
		</g>
		<rect x="221.79" y="214.86" class="st1" width="309.33" height="15.43"/>
		<path class="st6" d="M231.77,222.15c0,1.15-0.94,2.09-2.09,2.09c-1.15,0-2.09-0.94-2.09-2.09c0-1.15,0.94-2.09,2.09-2.09
			C230.84,220.06,231.77,220.99,231.77,222.15z"/>
		<path class="st6" d="M238.71,222.15c0,1.15-0.94,2.09-2.09,2.09c-1.15,0-2.09-0.94-2.09-2.09c0-1.15,0.94-2.09,2.09-2.09
			C237.78,220.06,238.71,220.99,238.71,222.15z"/>
		<path class="st6" d="M245.66,222.15c0,1.15-0.94,2.09-2.09,2.09c-1.15,0-2.09-0.94-2.09-2.09c0-1.15,0.94-2.09,2.09-2.09
			C244.72,220.06,245.66,220.99,245.66,222.15z"/>
		<g>
			<path class="st1" d="M497.04,277.68c0,0.15-53.67,0.27-119.87,0.27c-66.22,0-119.88-0.12-119.88-0.27
				c0-0.15,53.66-0.27,119.88-0.27C443.37,277.42,497.04,277.54,497.04,277.68z"/>
		</g>
		<g>
			<path class="st1" d="M497.04,283.63c0,0.15-53.67,0.27-119.87,0.27c-66.22,0-119.88-0.12-119.88-0.27
				c0-0.15,53.66-0.27,119.88-0.27C443.37,283.36,497.04,283.48,497.04,283.63z"/>
		</g>
	</g>
</g>
<g id="Character">
	<g>
		<g>
			<g>
				<g>
					<path class="st7" d="M339.7,208.35c0,0-2.11-4.79-2.51-5.84c-1.07-2.87-8-22.1-6.34-25.01c7.67-13.46,13.62-23.04,28.76-23.04
						l26.73-0.18c0,0,25.33-5.16,43.17,52.44L339.7,208.35z"/>
					<path class="st7" d="M283.32,213.17l34.99-7.54l41.14-21.64l0.16-29.53c-6.17-1.7-17.99,2.58-39.25,13.41l-31.59,16.31
						C277.95,189.77,275.26,204.04,283.32,213.17L283.32,213.17z"/>
				</g>
				<g>
					<g>
						<g>
							<path class="st11" d="M362.08,270.33c-0.51-1.66-0.16-2.73,2.26-1.92c5.34,1.79,10.11,1.21,11.28,0.17
								c1.17-1.04,0.09-3.02-1.64-2.85c-1.4,0.14-3.82-0.34-5.62-0.78c-1.49-0.36-2.91-0.95-4.19-1.77
								c-1.11-0.71-2.08-1.38-2.93-1.99c0,0-4.92-3.56-6.47-6.42l-16.89,7.24l2.72,8.46c0,0,0.88,4.98,5.71,6.55
								c4.83,1.57,12.51,0.98,12.51,0.98c1.41-0.92,6.84,6.94,8.49,9.71c1.62,2.74,3.61,3.12,4.24,1.42
								c0.43-1.16-4.39-9.77-6.08-12.48C364.53,275.2,362.69,272.33,362.08,270.33"/>
						</g>
						<g>
							<path class="st12" d="M350.64,278.04c-0.01,0.06-0.42,0.04-0.99-0.24c-0.57-0.28-1.28-0.87-1.76-1.73
								c-0.48-0.86-0.61-1.77-0.55-2.41c0.06-0.64,0.26-0.99,0.32-0.97c0.15,0.02-0.21,1.55,0.7,3.12
								C349.21,277.41,350.7,277.9,350.64,278.04z"/>
						</g>
						<g>
							<path class="st12" d="M355.98,278.25c-0.02,0.06-0.4,0.02-0.94-0.27c-0.54-0.28-1.2-0.87-1.65-1.69
								c-0.45-0.83-0.57-1.7-0.52-2.31c0.05-0.61,0.23-0.95,0.29-0.93c0.15,0.02-0.15,1.48,0.69,2.99
								C354.66,277.56,356.05,278.11,355.98,278.25z"/>
						</g>
					</g>
					<g>
						<path class="st7" d="M282.32,212.03c0,0,53.61,61.62,53.55,60.6c-0.06-1.02,24.03-19.03,24.03-19.03l-52.57-62.61
							L282.32,212.03z"/>
						<g>
							<path class="st5" d="M314.84,199.92c0.01-0.01,0.14,0.11,0.38,0.36c0.27,0.3,0.6,0.67,1,1.11c0.9,1.04,2.12,2.45,3.6,4.16
								c3.02,3.53,7.17,8.42,11.73,13.85c4.56,5.43,8.67,10.37,11.62,13.96c1.43,1.76,2.6,3.2,3.47,4.27
								c0.37,0.47,0.68,0.86,0.92,1.18c0.21,0.27,0.31,0.42,0.29,0.43c-0.01,0.01-0.14-0.11-0.38-0.36c-0.27-0.3-0.6-0.67-1-1.11
								c-0.9-1.04-2.12-2.45-3.6-4.16c-3.02-3.53-7.18-8.42-11.74-13.86c-4.56-5.43-8.66-10.37-11.62-13.96
								c-1.43-1.76-2.6-3.2-3.47-4.27c-0.37-0.47-0.68-0.86-0.92-1.18C314.93,200.08,314.83,199.93,314.84,199.92z"/>
						</g>
					</g>
				</g>
				<g>
					<path class="st5" d="M409.69,207.02c-0.11-0.03,0.59-1.47,0.64-3.95c0.02-1.23-0.15-2.71-0.69-4.23
						c-0.54-1.53-1.49-3.06-2.81-4.41c-1.3-1.37-2.7-2.55-3.82-3.79c-1.14-1.23-1.96-2.54-2.4-3.74c-0.45-1.2-0.52-2.26-0.44-2.97
						c0.09-0.71,0.26-1.07,0.28-1.06c0.12-0.01-0.47,1.59,0.51,3.9c0.47,1.13,1.29,2.37,2.41,3.55c1.12,1.19,2.52,2.36,3.85,3.76
						c1.35,1.38,2.36,3.01,2.89,4.62c0.54,1.6,0.68,3.14,0.61,4.41c-0.07,1.27-0.33,2.27-0.56,2.94
						C409.91,206.69,409.71,207.03,409.69,207.02z"/>
				</g>
				<g>
					<path class="st5" d="M337.37,159.6c-0.01-0.02,0.26-0.14,0.78-0.37c0.52-0.22,1.3-0.52,2.32-0.85
						c1.03-0.31,2.31-0.63,3.84-0.78c1.52-0.13,3.31-0.11,5.17,0.48c1.86,0.56,3.74,1.72,5.29,3.4c1.56,1.69,2.63,3.99,3.18,6.48
						c0.54,2.49,0.82,5.19,0.51,7.97c-0.32,2.76-1.23,5.61-2.96,8.03c-1.74,2.43-4.08,4.22-6.41,5.69
						c-2.35,1.48-4.71,2.69-6.95,3.87c-4.47,2.35-8.5,4.46-11.91,6.25c-3.36,1.74-6.1,3.16-8.05,4.17c-0.92,0.46-1.65,0.83-2.2,1.11
						c-0.51,0.25-0.78,0.37-0.78,0.35c-0.01-0.02,0.24-0.17,0.73-0.45c0.53-0.3,1.25-0.7,2.15-1.2c1.93-1.05,4.64-2.52,7.97-4.32
						c3.39-1.81,7.4-3.96,11.85-6.35c2.23-1.19,4.6-2.41,6.91-3.88c2.31-1.45,4.58-3.21,6.26-5.55c1.67-2.34,2.56-5.1,2.88-7.79
						c0.31-2.7,0.04-5.36-0.47-7.8c-0.53-2.44-1.54-4.65-3.03-6.29c-1.48-1.64-3.28-2.78-5.08-3.34c-1.79-0.59-3.54-0.65-5.03-0.54
						c-1.5,0.12-2.78,0.41-3.81,0.68c-1.02,0.29-1.81,0.56-2.34,0.75C337.66,159.53,337.38,159.62,337.37,159.6z"/>
				</g>
				<g>
					<path class="st5" d="M320.74,205.57c-0.17,0.05-0.62-3.53-2.99-7.14c-2.33-3.65-5.41-5.52-5.3-5.65
						c0.03-0.05,0.83,0.34,1.97,1.22c1.14,0.88,2.57,2.3,3.77,4.14c1.2,1.85,1.91,3.74,2.24,5.14
						C320.77,204.67,320.8,205.56,320.74,205.57z"/>
				</g>
				<g>
					<path class="st2" d="M399.54,198.87c0,0-0.38,0.16-1.14,0.31c-0.76,0.15-1.91,0.29-3.38,0.15c-1.46-0.14-3.26-0.6-5.08-1.67
						c-1.81-1.06-3.6-2.83-4.69-5.27c-1.08-2.41-1.54-5.48-0.65-8.51c0.46-1.51,1.36-2.99,2.83-3.92c0.72-0.46,1.66-0.71,2.55-0.52
						c0.91,0.16,1.69,0.77,2.23,1.48c2.03,2.98,2.37,7.02,1.19,10.67c-0.61,1.82-1.61,3.56-3.03,4.96
						c-1.41,1.41-3.24,2.43-5.21,2.95c-3.94,1.05-8.32,0.1-11.14-2.59c-2.81-2.7-3.91-6.68-3.34-10.16c0.26-1.75,1-3.38,2.04-4.71
						c0.54-0.65,1.2-1.22,2-1.53c0.79-0.33,1.7-0.3,2.46,0.03c1.51,0.67,2.44,2.16,2.61,3.63c0.17,1.49-0.26,2.89-0.81,4.09
						c-1.17,2.39-2.72,4.25-4.26,5.68c-1.54,1.42-3.07,2.42-4.37,3.09c-1.31,0.68-2.38,1.08-3.12,1.3
						c-0.37,0.12-0.66,0.18-0.85,0.24c-0.19,0.05-0.29,0.07-0.29,0.06c0-0.01,0.09-0.05,0.28-0.11c0.19-0.07,0.47-0.15,0.83-0.28
						c0.72-0.26,1.78-0.68,3.06-1.38c1.28-0.7,2.76-1.71,4.26-3.13c1.49-1.42,3-3.28,4.12-5.62c0.53-1.17,0.92-2.5,0.74-3.88
						c-0.16-1.34-1.04-2.7-2.37-3.28c-0.66-0.28-1.43-0.3-2.12-0.01c-0.69,0.27-1.3,0.79-1.8,1.4c-0.97,1.25-1.67,2.81-1.92,4.48
						c-0.54,3.33,0.55,7.15,3.22,9.7c2.67,2.55,6.87,3.46,10.65,2.46c1.89-0.5,3.63-1.46,4.97-2.81c1.35-1.34,2.32-3.01,2.91-4.75
						c0.57-1.76,0.78-3.6,0.59-5.37c-0.09-0.88-0.27-1.75-0.55-2.57c-0.26-0.83-0.63-1.61-1.13-2.27c-0.5-0.66-1.17-1.17-1.94-1.31
						c-0.76-0.16-1.56,0.04-2.21,0.45c-1.33,0.83-2.22,2.24-2.65,3.65c-0.88,2.91-0.46,5.88,0.57,8.23c1.04,2.37,2.75,4.11,4.5,5.17
						c1.76,1.07,3.51,1.55,4.95,1.72C397.96,199.44,399.54,198.77,399.54,198.87z"/>
				</g>
				<g>
					<g>
						<path class="st12" d="M403.58,138.87c-1.13-1.38-1.96-3.02-2.39-4.75c-0.14-0.57-0.24-1.18-0.06-1.74
							c0.18-0.56,0.71-1.05,1.29-0.99c0.6,0.06,1.01,0.62,1.33,1.13c0.94,1.49,1.85,3.02,2.47,4.68c0.17,0.46,0.32,0.93,0.29,1.42
							c-0.03,0.49-0.26,0.99-0.7,1.21c-0.47,0.25-1.07,0.11-1.5-0.2c-0.43-0.31-0.74-0.77-1.03-1.21"/>
						<path class="st12" d="M406.15,137.76c-0.88-1.85-1.76-3.69-2.64-5.54c-0.26-0.55-0.53-1.12-0.55-1.72s0.28-1.27,0.85-1.48
							c0.5-0.18,1.07,0.02,1.46,0.38c0.39,0.35,0.64,0.84,0.89,1.31c0.42,0.81,0.83,1.62,1.25,2.43c0.34,0.66,0.68,1.33,0.82,2.06
							c0.14,0.73,0.05,1.54-0.41,2.12c-0.46,0.58-1.35,0.85-1.99,0.47"/>
						<path class="st11" d="M394.4,154.89c0,0-3.68-4.77-4.01-7.29c-0.33-2.52,2.75-6.98,9.36-7.98c3.55-0.54,5.63-1.53,6.79-2.33
							c0.84-0.58,1.16-1.64,0.77-2.58c-0.87-2.11-2.43-6.02-2.31-6.54c0.31-1.35,1.19-1.32,3.47,2.02c2.29,3.34,4.92,6.74,4.41,8.28
							c-0.51,1.54-8.57,6.31-8.57,6.31l2.2,3.55L394.4,154.89z"/>
					</g>
					<path class="st7" d="M416.26,203.93l-25.37-49.7l16.33-9.15l34.32,54.41c0,0,1.81,3.48,4.34,7.55h-28.77"/>
				</g>
			</g>
			<g>
				<path class="st5" d="M406.96,145.07c0.01,0.01-0.09,0.08-0.28,0.2c-0.23,0.14-0.51,0.31-0.86,0.52
					c-0.81,0.47-1.91,1.11-3.29,1.91c-2.9,1.65-6.95,3.96-11.8,6.72l0.09-0.3c2.47,5.03,5.67,10.85,8.91,17.18
					c4.81,9.35,8.97,17.92,11.9,24.16c1.47,3.12,2.62,5.66,3.41,7.41c0.37,0.85,0.67,1.52,0.89,2.03c0.2,0.47,0.29,0.72,0.28,0.72
					c-0.02,0.01-0.15-0.23-0.38-0.68c-0.25-0.5-0.57-1.16-0.98-1.99c-0.87-1.79-2.08-4.28-3.56-7.34
					c-3.01-6.2-7.22-14.73-12.03-24.08c-3.23-6.32-6.41-12.15-8.84-17.21l-0.1-0.2l0.19-0.1c4.89-2.69,8.97-4.95,11.89-6.56
					c1.4-0.76,2.53-1.36,3.35-1.8c0.36-0.19,0.65-0.34,0.89-0.46C406.85,145.1,406.96,145.06,406.96,145.07z"/>
			</g>
			<g>
				<path class="st5" d="M339.7,208.35c-0.12,0.07-1.54-2.37-2.72-5.62c-1.18-3.26-1.65-6.03-1.51-6.06
					c0.15-0.03,0.84,2.66,2.02,5.88C338.65,205.76,339.84,208.28,339.7,208.35z"/>
			</g>
		</g>
		<g>
			<path class="st5" d="M395.58,135.07c3.99,1.57,8.94,0.22,11.58-3.17c2.64-3.38,2.75-8.51,0.25-12.01
				c5.73-1.45,9.3-8.06,8.14-13.85c-1.16-5.79-6.34-10.32-12.11-11.57c-2.21-0.48-4.55-0.53-6.7,0.17c-2.15,0.7-4.08,2.22-5,4.29"/>
			<g>
				<path class="st8" d="M394.77,122.11c0.02,0.06-0.75,0.2-1.96,0.83c-1.18,0.62-2.84,1.9-3.83,4.12c-0.48,1.1-0.8,2.42-0.72,3.83
					c0.08,1.4,0.48,2.91,1.36,4.23c0.42,0.67,0.97,1.28,1.6,1.82c0.62,0.54,1.35,1,2.14,1.33c1.57,0.7,3.43,0.87,5.21,0.48
					c1.77-0.42,3.37-1.38,4.48-2.7c0.57-0.64,1.02-1.37,1.35-2.13c0.34-0.75,0.56-1.54,0.65-2.33c0.22-1.57-0.08-3.1-0.61-4.4
					c-0.54-1.31-1.4-2.35-2.31-3.13c-1.86-1.57-3.9-2-5.24-2.05C395.53,121.96,394.78,122.18,394.77,122.11
					c0-0.02,0.18-0.07,0.54-0.15c0.35-0.09,0.89-0.16,1.59-0.16c1.37-0.01,3.5,0.36,5.47,1.97c0.97,0.8,1.89,1.88,2.48,3.25
					c0.58,1.36,0.91,2.97,0.69,4.64c-0.09,0.83-0.32,1.67-0.67,2.47c-0.34,0.81-0.82,1.58-1.42,2.27c-1.18,1.4-2.87,2.43-4.76,2.88
					c-1.89,0.42-3.87,0.23-5.53-0.52c-0.84-0.36-1.61-0.84-2.26-1.42c-0.67-0.57-1.24-1.22-1.68-1.94c-0.92-1.4-1.33-3-1.39-4.48
					c-0.06-1.49,0.3-2.86,0.82-4c1.08-2.3,2.84-3.57,4.08-4.15c0.63-0.3,1.15-0.47,1.5-0.54
					C394.58,122.13,394.77,122.09,394.77,122.11z"/>
			</g>
			<path class="st5" d="M399.11,106.35c4.14-0.23,7.95-3.37,8.97-7.39c1.02-4.02-0.82-8.6-4.35-10.78
				c1.7-4.79,0.03-10.57-3.97-13.71c-4-3.14-10.02-3.38-14.26-0.59c-3.24-5.68-10.18-9.01-16.64-7.97
				c-6.46,1.04-12.01,6.36-13.32,12.77c-5.81-2.4-13.04-0.86-17.36,3.72c-4.32,4.57-5.46,11.87-2.74,17.54
				c-6.32,0.55-11.58,6.79-11.04,13.12c0.54,6.32,6.77,11.59,13.1,11.06c-1.29,4.2,0.33,9.13,3.86,11.75
				c3.53,2.62,8.72,2.73,12.36,0.27c2.32,3.75,6.91,5.98,11.29,5.47c4.39-0.5,8.35-3.71,9.76-7.89"/>
			<g>
				<g>
					<g>
						<path class="st11" d="M387.07,153.27c0.21-4.87,0.47-9.28,0.47-9.28s10.88-1.37,11.35-12.48c0.47-11.11-0.64-36.69-0.64-36.69
							l-20.03-9.62l-21.55,17.36l3.38,51.02c0.49,7.35,6.77,12.96,14.13,12.62l0,0C381.18,165.88,386.77,160.26,387.07,153.27z"/>
					</g>
					<g>
						<g>
							<g>
								<path class="st5" d="M397.73,113.84c-0.17,0.19-1.21-0.69-2.7-0.74c-1.49-0.08-2.6,0.7-2.76,0.5
									c-0.08-0.09,0.1-0.43,0.59-0.78c0.47-0.35,1.28-0.68,2.21-0.64c0.93,0.04,1.71,0.44,2.15,0.83
									C397.66,113.41,397.81,113.76,397.73,113.84z"/>
							</g>
						</g>
					</g>
					<g>
						<g>
							<g>
								<path class="st5" d="M381.21,113.84c-0.18,0.19-1.21-0.69-2.7-0.74c-1.49-0.08-2.6,0.7-2.76,0.5
									c-0.08-0.09,0.1-0.43,0.59-0.78c0.47-0.35,1.28-0.68,2.21-0.64c0.93,0.04,1.71,0.44,2.15,0.83
									C381.14,113.41,381.29,113.76,381.21,113.84z"/>
							</g>
						</g>
					</g>
					<g>
						<g>
							<path class="st5" d="M386.81,125.05c-0.01-0.09,0.92-0.23,2.43-0.37c0.38-0.03,0.74-0.09,0.81-0.37
								c0.09-0.29-0.06-0.74-0.24-1.22c-0.34-1-0.7-2.05-1.08-3.15c-1.5-4.48-2.57-8.17-2.4-8.23c0.17-0.06,1.52,3.53,3.01,8.01
								c0.36,1.11,0.7,2.16,1.03,3.17c0.14,0.47,0.38,1,0.17,1.61c-0.11,0.3-0.39,0.51-0.64,0.57c-0.25,0.07-0.46,0.07-0.65,0.07
								C387.75,125.17,386.81,125.14,386.81,125.05z"/>
						</g>
					</g>
					<g>
						<path class="st12" d="M387.54,143.99c0,0-7.28,0.21-14.41-4.72c0,0,3.39,8.09,14.22,7.44L387.54,143.99z"/>
					</g>
				</g>
			</g>
			<path class="st5" d="M372.08,85.82c-3.55,4.91-3.47,12.15,0.2,16.98c1.62,2.13,4.06,3.85,6.73,3.76c2.67-0.1,5.25-2.63,4.68-5.24
				c-1.04,3.27,1.74,7.14,5.16,7.2c3.43,0.06,6.34-3.71,5.42-7.01c0.27,1.19,0.56,2.4,1.24,3.41c0.68,1.01,1.86,1.77,3.07,1.61
				c1.67-0.22,2.65-2.02,3.03-3.66c1.15-4.92-0.67-10.32-4.28-13.85c-3.61-3.53-8.84-5.21-13.88-4.87
				c-5.04,0.34-9.85,2.61-13.63,5.96"/>
			<path class="st5" d="M373.49,89.74c1.3,3.17,2.27,6.54,2.24,9.97c-0.04,3.43-1.17,6.94-3.6,9.36c-2.43,2.42-6.26,3.53-9.45,2.27
				c0.76,3,0.49,6.4-1.38,8.87c-1.87,2.47-5.52,3.65-8.24,2.16c-2.45-1.34-3.52-4.32-3.85-7.1c-0.82-6.72,1.56-13.76,6.29-18.61
				c4.72-4.85,11.7-7.41,18.44-6.76"/>
			<g>
				<g>
					<path class="st11" d="M359.75,116.21c-1.48-0.91-3.5-0.16-4.68,1.12c-1.85,2.02-2.17,5.28-0.75,7.62
						c1.42,2.34,4.46,3.57,7.11,2.86"/>
					<g>
						<path class="st12" d="M359.41,124.48c0,0.06-0.49,0.13-1.26-0.08c-0.73-0.2-1.85-0.79-2.28-2.04
							c-0.21-0.6-0.17-1.26,0.06-1.77c0.23-0.51,0.59-0.87,0.92-1.09c0.68-0.45,1.21-0.44,1.21-0.38c0.02,0.08-0.44,0.21-0.98,0.68
							c-0.54,0.44-1.08,1.38-0.71,2.4c0.34,1.01,1.25,1.58,1.91,1.86C358.95,124.33,359.42,124.4,359.41,124.48z"/>
					</g>
				</g>
			</g>
			<g>
				<path class="st5" d="M382.13,109.21c-0.14,0.43-1.76,0.27-3.7,0.36c-1.93,0.06-3.54,0.34-3.71-0.08
					c-0.18-0.39,1.4-1.44,3.65-1.51C380.62,107.88,382.28,108.8,382.13,109.21z"/>
			</g>
			<g>
				<path class="st13" d="M377.77,108.41"/>
			</g>
			<g>
				<path class="st5" d="M397.69,108.9c-0.17,0.15-0.5,0.05-0.89-0.04c-0.4-0.1-0.77-0.15-1.36-0.09c-0.58,0.06-1.22,0.16-1.71,0.15
					c-0.49,0-0.83-0.11-0.89-0.32c-0.06-0.21,0.16-0.49,0.57-0.76c0.42-0.27,1.03-0.57,1.89-0.66c0.86-0.12,1.8,0.29,2.15,0.75
					C397.82,108.38,397.85,108.76,397.69,108.9z"/>
			</g>
			<path class="st12" d="M384.22,127.89c0.84-0.5,1.89-0.73,2.81-0.4c0.92,0.34,1.61,1.34,1.39,2.29c-0.12,0.52-0.48,0.96-0.9,1.28
				c-0.65,0.49-1.51,0.74-2.32,0.57c-0.8-0.17-1.52-0.78-1.72-1.57c-0.21-0.79,0.17-1.72,0.9-2.08"/>
			<g>
				<path class="st5" d="M389.68,129.08c0.03,0.06-0.35,0.31-1.07,0.47c-0.71,0.16-1.77,0.16-2.82-0.28
					c-1.05-0.44-1.79-1.19-2.18-1.81c-0.4-0.62-0.48-1.07-0.42-1.09c0.07-0.03,0.28,0.35,0.72,0.86c0.44,0.51,1.14,1.15,2.08,1.54
					c0.94,0.39,1.89,0.45,2.56,0.39C389.23,129.12,389.65,129,389.68,129.08z"/>
			</g>
			<g>
				<path class="st8" d="M367.13,134.38c-0.06,0-0.02-0.77-0.37-2.09c-0.34-1.29-1.22-3.19-3.17-4.65
					c-0.96-0.71-2.18-1.32-3.57-1.56c-1.39-0.23-2.95-0.18-4.43,0.39c-0.75,0.26-1.47,0.66-2.13,1.15
					c-0.67,0.49-1.28,1.09-1.77,1.79c-1.03,1.38-1.61,3.15-1.63,4.97c0.02,1.82,0.6,3.59,1.63,4.97c0.5,0.7,1.11,1.3,1.77,1.79
					c0.66,0.5,1.38,0.89,2.13,1.15c1.48,0.57,3.04,0.62,4.43,0.39c1.39-0.24,2.61-0.84,3.57-1.56c1.95-1.46,2.82-3.36,3.17-4.65
					C367.1,135.15,367.06,134.37,367.13,134.38c0.02,0,0.03,0.19,0.03,0.56c0.01,0.36-0.04,0.91-0.2,1.59
					c-0.29,1.34-1.14,3.33-3.14,4.9c-0.99,0.76-2.25,1.42-3.72,1.69c-1.45,0.26-3.1,0.23-4.68-0.36c-0.79-0.27-1.56-0.68-2.26-1.2
					c-0.71-0.51-1.36-1.15-1.89-1.89c-1.1-1.46-1.73-3.34-1.74-5.28c0.02-1.94,0.64-3.82,1.74-5.28c0.53-0.74,1.18-1.38,1.89-1.89
					c0.7-0.52,1.47-0.93,2.26-1.2c1.58-0.59,3.22-0.62,4.68-0.36c1.46,0.27,2.73,0.93,3.72,1.69c2,1.57,2.85,3.56,3.14,4.9
					c0.15,0.68,0.2,1.22,0.2,1.59C367.15,134.18,367.14,134.38,367.13,134.38z"/>
			</g>
			<g>
				<path class="st7" d="M397.68,84.66c0-0.01,0.1,0.01,0.28,0.07c0.17,0.07,0.43,0.19,0.7,0.45c0.53,0.48,1.13,1.54,0.89,2.92
					c-0.22,1.39-1.62,2.72-3.46,3.07c-1.87,0.39-3.97-0.31-5.86-1.4l-2.06-1.19l2.27,0.74c0.78,0.25,1.34,0.98,1.53,1.75
					c0.21,0.78,0.12,1.65-0.32,2.39c-0.45,0.74-1.21,1.22-2.03,1.44c-0.82,0.22-1.71,0.18-2.53-0.06c-2.03-0.63-3.35-2.28-4.35-3.76
					l-1.45-2.12l1.84,1.79c1.05,1.02,1.28,2.54,0.99,3.78c-0.28,1.27-1.16,2.33-2.22,2.82c-2.14,1.02-4.43,0.38-5.69-0.69
					c-1.32-1.08-1.88-2.36-2.15-3.21c-0.14-0.43-0.2-0.78-0.24-1.01c-0.03-0.24-0.04-0.36-0.02-0.36c0.04-0.01,0.11,0.48,0.43,1.31
					c0.32,0.81,0.92,2.03,2.19,3.01c1.21,0.98,3.36,1.51,5.28,0.56c0.95-0.46,1.7-1.39,1.95-2.53c0.25-1.12,0.02-2.45-0.87-3.3
					l0.39-0.33c0.99,1.45,2.27,2.99,4.08,3.54c1.46,0.45,3.23,0.07,3.97-1.14c0.73-1.18,0.29-3.01-0.92-3.41l0.2-0.45
					c1.84,1.08,3.82,1.75,5.54,1.42c1.71-0.29,3.01-1.48,3.25-2.72c0.26-1.25-0.25-2.26-0.71-2.74
					C398.07,84.78,397.66,84.71,397.68,84.66z"/>
			</g>
			<g>
				<path class="st7" d="M371.04,102.53c0.01,0.01-0.04,0.07-0.13,0.19c-0.09,0.12-0.25,0.29-0.47,0.5
					c-0.44,0.4-1.16,0.95-2.23,1.33c-1.06,0.37-2.51,0.56-4.04,0.07c-1.51-0.48-3.09-1.63-3.97-3.43l0.42-0.06
					c-0.36,2.32-2.26,4.66-5.01,5.3c-2.72,0.62-6-0.82-7.28-3.67c-1.13-2.56-0.39-5.58,1.4-7.31l0.35,0.38
					c-1.22,1.02-2.76,1.51-4.21,1.52c-1.45,0.03-2.84-0.38-3.95-1.08c-1.11-0.7-1.94-1.71-2.36-2.78c-0.44-1.06-0.56-2.14-0.49-3.09
					c0.14-1.92,0.97-3.3,1.64-4.07c0.7-0.77,1.22-1.01,1.22-1.01c0.03,0.04-0.45,0.34-1.09,1.12c-0.62,0.78-1.37,2.13-1.45,3.97
					c-0.04,0.91,0.1,1.93,0.53,2.92c0.42,0.99,1.2,1.91,2.24,2.55c1.05,0.64,2.35,1,3.71,0.97c1.35-0.02,2.77-0.49,3.88-1.43
					l0.35,0.38c-1.63,1.58-2.31,4.39-1.27,6.72c1.15,2.6,4.2,3.96,6.68,3.39c2.52-0.56,4.33-2.73,4.68-4.87l0.12-0.7l0.3,0.64
					c0.79,1.69,2.26,2.8,3.68,3.28c1.44,0.5,2.82,0.35,3.85,0.03c1.05-0.32,1.77-0.82,2.23-1.19
					C370.81,102.75,371.02,102.51,371.04,102.53z"/>
			</g>
			<g>
				<path class="st7" d="M351.21,120.31c0.01,0.02-0.26,0.25-0.86,0.51c-0.6,0.26-1.55,0.53-2.77,0.43
					c-1.19-0.09-2.69-0.61-3.82-1.86c-1.11-1.22-1.85-3.13-1.5-5.13l0.46,0.2c-0.93,1.22-2.2,2.34-3.76,3.07
					c-1.16,0.54-2.42,0.82-3.64,0.78c-1.22-0.04-2.38-0.37-3.35-0.92c-1.99-1.06-3.11-3.05-3.19-4.73c-0.13-1.7,0.48-3.02,1.03-3.75
					c0.29-0.37,0.55-0.62,0.75-0.76c0.2-0.14,0.3-0.21,0.32-0.2c0.04,0.04-0.39,0.34-0.89,1.08c-0.48,0.74-0.99,2.01-0.82,3.6
					c0.12,1.57,1.17,3.36,3.05,4.34c1.83,1.02,4.34,1.15,6.54,0.09c1.46-0.68,2.68-1.74,3.57-2.89l0.65-0.84l-0.19,1.04
					c-0.33,1.81,0.32,3.59,1.33,4.74c1.02,1.18,2.39,1.7,3.52,1.83c1.15,0.14,2.07-0.07,2.67-0.27
					C350.88,120.46,351.19,120.28,351.21,120.31z"/>
			</g>
			<g>
				<path class="st7" d="M407.84,98.65c0.05-0.02,0.3,0.68,0.22,1.85c-0.07,1.15-0.57,2.79-1.82,4.1c-1.26,1.31-2.87,1.88-4.02,2.01
					c-1.16,0.13-1.87-0.08-1.86-0.14c0.01-0.09,0.71-0.01,1.8-0.23c1.07-0.21,2.54-0.8,3.7-2c1.15-1.21,1.67-2.7,1.84-3.78
					C407.86,99.36,407.75,98.66,407.84,98.65z"/>
			</g>
			<g>
				<path class="st7" d="M413.96,109.12c0.03-0.01,0.16,0.25,0.25,0.76c0.08,0.51,0.12,1.29-0.21,2.19
					c-0.31,0.87-1.09,1.94-2.42,2.23c-0.64,0.14-1.35,0.1-2.02-0.17c-0.67-0.26-1.3-0.8-1.59-1.55l0.5-0.17
					c0.08,0.31,0.14,0.64,0.12,0.98c-0.05,1.67-1.17,3.07-2.51,3.56c-0.67,0.25-1.39,0.25-1.99,0.08c-0.61-0.17-1.11-0.48-1.5-0.83
					c-0.8-0.7-1.12-1.53-1.21-2.1c-0.09-0.57,0-0.89,0.03-0.89c0.05,0,0.03,0.32,0.18,0.84c0.14,0.52,0.5,1.26,1.25,1.85
					c0.72,0.6,1.92,1.03,3.07,0.57c1.13-0.44,2.12-1.7,2.15-3.11c0.01-0.29-0.04-0.57-0.1-0.83l0.5-0.17
					c0.48,1.21,1.95,1.67,3.03,1.44c1.12-0.2,1.85-1.1,2.18-1.89c0.34-0.81,0.37-1.55,0.35-2.04
					C413.98,109.4,413.91,109.13,413.96,109.12z"/>
			</g>
			<g>
				<path class="st5" d="M383.46,123.98c0.07,0.01,0.11,0.23,0.02,0.57c-0.09,0.34-0.33,0.78-0.74,1.12
					c-0.41,0.34-0.89,0.5-1.24,0.52c-0.35,0.02-0.56-0.06-0.55-0.13c0-0.15,0.77-0.22,1.45-0.81
					C383.09,124.69,383.31,123.95,383.46,123.98z"/>
			</g>
		</g>
	</g>
</g>
<g id="Plant">
	<g>
		<g>
			<path class="st8" d="M621.81,410.79c-2.5,3.57-7.35,2.39-9.6,0.21c-2.25-2.18-3.2-5.33-4.07-8.34
				c-1.98-6.87-3.97-14.08-2.5-21.08c0.44-2.09,1.22-4.18,2.69-5.73c1.47-1.55,3.73-2.48,5.8-1.93c2.45,0.65,3.97,3.04,5.07,5.32
				c3.23,6.7,4.94,14.13,4.97,21.57C624.18,404.28,623.77,407.92,621.81,410.79"/>
		</g>
		<g class="st14">
			<path d="M621.81,410.79c-2.5,3.57-7.35,2.39-9.6,0.21c-2.25-2.18-3.2-5.33-4.07-8.34c-1.98-6.87-3.97-14.08-2.5-21.08
				c0.44-2.09,1.22-4.18,2.69-5.73c1.47-1.55,3.73-2.48,5.8-1.93c2.45,0.65,3.97,3.04,5.07,5.32c3.23,6.7,4.94,14.13,4.97,21.57
				C624.18,404.28,623.77,407.92,621.81,410.79"/>
		</g>
		<g>
			<path class="st8" d="M612.46,428.85c-4.08-2.11-8.89-2.38-13.42-1.63c-2.43,0.4-4.97,1.13-6.63,2.96
				c-1.66,1.83-1.97,5.05-0.07,6.62c1.13,0.94,2.71,1.08,4.18,1.06c3.55-0.04,7.49-0.67,10.32,1.47c1.62,1.22,2.69,3.24,4.63,3.84
				c1.89,0.59,4.03-0.53,5.03-2.24c1-1.71,1.04-3.84,0.57-5.77C617.06,435.16,616.57,430.97,612.46,428.85z"/>
		</g>
		<g>
			<path class="st8" d="M628.67,415.9c-2.71-3.22-3.22-7.91-2.02-11.94c1.21-4.03,3.93-7.46,7.07-10.26
				c3.68-3.28,8.01-5.84,12.66-7.47c1.83-0.64,3.76-1.15,5.69-0.97c1.93,0.18,3.88,1.17,4.78,2.89c1.33,2.54,0.05,5.62-1.33,8.14
				c-2.43,4.43-5.22,8.67-8.32,12.67c-2.49,3.21-5.35,6.38-9.15,7.84c-3.8,1.45-7.75,1.28-9.76-1.35"/>
		</g>
		<g>
			<g>
				<path class="st5" d="M621.98,464.57c-0.05,0-0.12-0.57-0.23-1.62c-0.11-1.18-0.26-2.66-0.43-4.42
					c-0.21-1.86-0.48-4.07-0.99-6.49c-0.52-2.4-1.32-5.01-2.36-7.65c-1.07-2.63-2.38-5.02-3.91-6.93c-1.52-1.92-3.28-3.31-4.94-4.11
					c-1.65-0.82-3.14-1.15-4.16-1.3c-1.03-0.11-1.61-0.19-1.61-0.23c0-0.05,0.58-0.05,1.64-0.03c1.05,0.07,2.6,0.34,4.34,1.13
					c1.75,0.78,3.62,2.19,5.21,4.14c1.6,1.95,2.96,4.39,4.05,7.07c1.05,2.69,1.85,5.32,2.34,7.78c0.49,2.45,0.72,4.69,0.86,6.57
					c0.14,1.88,0.19,3.4,0.22,4.45C622.04,463.99,622.02,464.57,621.98,464.57z"/>
			</g>
		</g>
		<g>
			<g>
				<path class="st5" d="M621.67,461.17c-0.02,0-0.04-0.26-0.04-0.75c0-0.56,0-1.28,0.01-2.15c0.01-1.87,0-4.57-0.1-7.9
					c-0.17-6.67-0.74-15.87-1.85-25.99c-1.12-10.12-2.6-19.22-3.95-25.76c-0.32-1.64-0.64-3.11-0.94-4.4
					c-0.29-1.29-0.53-2.41-0.77-3.31c-0.2-0.85-0.37-1.54-0.5-2.09c-0.11-0.48-0.15-0.74-0.13-0.74c0.02-0.01,0.11,0.24,0.26,0.71
					c0.16,0.54,0.37,1.22,0.62,2.06c0.28,0.89,0.56,2,0.88,3.29c0.34,1.28,0.69,2.75,1.04,4.39c1.47,6.52,3.03,15.64,4.15,25.78
					c1.11,10.14,1.61,19.37,1.66,26.05c0.04,3.34-0.03,6.05-0.12,7.91c-0.05,0.87-0.1,1.58-0.13,2.15
					C621.73,460.92,621.7,461.17,621.67,461.17z"/>
			</g>
		</g>
		<g>
			<g>
				<path class="st5" d="M621.63,443.37c-0.05,0-0.04-0.8,0.02-2.25c0.08-1.44,0.28-3.53,0.69-6.08c0.43-2.55,1.03-5.58,1.98-8.86
					c0.9-3.3,2.14-6.86,3.71-10.49c3.08-7.29,7.25-13.26,10.89-16.95c0.85-0.98,1.8-1.69,2.56-2.38c0.39-0.33,0.74-0.66,1.09-0.93
					c0.36-0.25,0.69-0.47,0.99-0.68c1.2-0.82,1.87-1.25,1.89-1.21c0.11,0.15-2.68,1.79-6.2,5.53c-3.5,3.73-7.56,9.66-10.61,16.89
					c-1.56,3.59-2.8,7.12-3.73,10.39c-0.97,3.26-1.62,6.25-2.11,8.78c-0.46,2.53-0.73,4.59-0.89,6.02
					C621.77,442.58,621.68,443.37,621.63,443.37z"/>
			</g>
		</g>
	</g>
</g>
<g id="Speech_Bubble">
	<g>
		<g>
			<g>
				<path class="st5" d="M270.4,41.62c0,0.01-0.24,0.04-0.69,0.09c-0.5,0.04-1.17,0.1-2.04,0.17c-0.9,0.03-1.99,0.23-3.28,0.48
					c-0.64,0.14-1.35,0.2-2.07,0.42c-0.73,0.21-1.5,0.43-2.31,0.67c-3.22,1.06-7.1,2.72-10.98,5.6c-3.88,2.86-7.74,6.93-10.73,12.22
					c-1.57,2.6-2.7,5.6-3.71,8.74c-0.81,3.2-1.53,6.6-1.54,10.17c-0.14,1.78,0.06,3.59,0.16,5.43c0.06,0.92,0.27,1.83,0.39,2.75
					c0.14,0.93,0.28,1.86,0.56,2.77c0.8,3.72,2.36,7.35,4.32,10.83c3.92,6.98,10.43,12.96,18.43,16.37c4,1.71,8.42,2.61,12.9,2.74
					c4.49,0.23,9.07-0.54,13.41-2.09l1.31-0.5l0.17-0.07l0.16,0.08c6.48,3.2,12.84,6.34,19,9.38l-0.56,0.49
					c-2.09-6.24-4.11-12.29-6.06-18.09l-0.07-0.22l0.16-0.17c4.71-4.82,7.96-10.65,9.73-16.6c1.78-5.97,2.02-12.03,1.24-17.57
					c-0.78-5.56-2.66-10.59-5.13-14.82c-2.47-4.24-5.53-7.68-8.65-10.35c-3.16-2.65-6.43-4.44-9.35-5.8
					c-2.99-1.21-5.66-1.98-7.87-2.38c-1.11-0.18-2.09-0.33-2.94-0.47c-0.85-0.05-1.57-0.09-2.17-0.13c-0.56-0.04-1-0.07-1.33-0.09
					C270.55,41.65,270.4,41.63,270.4,41.62c0-0.01,0.15-0.02,0.45-0.01c0.33,0.01,0.77,0.01,1.33,0.02c0.6,0.02,1.33,0.04,2.18,0.06
					c0.86,0.12,1.86,0.25,2.97,0.41c2.23,0.36,4.93,1.1,7.97,2.29c2.97,1.34,6.29,3.11,9.51,5.78c3.19,2.68,6.3,6.14,8.84,10.43
					c2.53,4.28,4.47,9.38,5.29,15.02c0.82,5.63,0.59,11.79-1.2,17.87c-1.78,6.06-5.08,12.01-9.87,16.94l0.09-0.39
					c1.95,5.8,3.98,11.84,6.08,18.08l0.31,0.91l-0.86-0.43c-6.16-3.04-12.52-6.17-19.01-9.37l0.33,0.01l-1.34,0.51
					c-4.43,1.58-9.12,2.37-13.71,2.13c-4.58-0.14-9.09-1.06-13.18-2.82c-8.17-3.5-14.8-9.61-18.78-16.73
					c-1.99-3.55-3.56-7.25-4.36-11.03c-0.27-0.93-0.42-1.88-0.56-2.82c-0.13-0.94-0.34-1.87-0.39-2.8
					c-0.09-1.87-0.29-3.71-0.14-5.52c0.03-3.63,0.77-7.08,1.61-10.33c1.04-3.19,2.2-6.22,3.81-8.85c3.06-5.35,7.01-9.44,10.96-12.3
					c3.96-2.88,7.9-4.52,11.16-5.54c0.83-0.23,1.61-0.44,2.34-0.64c0.73-0.21,1.45-0.26,2.09-0.39c1.3-0.22,2.4-0.4,3.31-0.4
					c0.87-0.04,1.55-0.07,2.05-0.09C270.16,41.61,270.4,41.61,270.4,41.62z"/>
			</g>
		</g>
		<g>
			<g>
				<path class="st8" d="M279.34,76.5l-2.77,0.03l-6.14-8.35l-0.06-5.53c0,0-4.28-0.21-3.7,7.02c0.59,7.23,0.02,5.39,0.02,5.39
					s-9.09,0.14-9.83,0.94c-0.54,0.58-0.69,9.61-0.73,14.5c-0.02,2.46,1.52,4.74,3.82,5.3c0.33,0.08,0.66,0.12,0.98,0.12
					c2.27-0.03,13.82-2,13.82-2l4.78-0.05L279.34,76.5z"/>
			</g>
			<g>
				<polygon class="st8" points="287.25,74.89 285.76,93.85 281.02,93.9 280.81,75.35 				"/>
			</g>
		</g>
	</g>
</g>
</svg>
